<svg width="24" height="24" viewBox="0 0 24 24" fill="none" xmlns="http://www.w3.org/2000/svg">
<path fill-rule="evenodd" clip-rule="evenodd" d="M9.59961 4.80039C7.61138 4.80039 5.99961 6.41217 5.99961 8.40039V13.2004C5.99961 16.5141 8.6859 19.2004 11.9996 19.2004C15.3133 19.2004 17.9996 16.5141 17.9996 13.2004V8.40039C17.9996 7.73765 18.5369 7.20039 19.1996 7.20039C19.8624 7.20039 20.3996 7.73765 20.3996 8.40039V13.2004C20.3996 17.8396 16.6388 21.6004 11.9996 21.6004C7.36042 21.6004 3.59961 17.8396 3.59961 13.2004V8.40039C3.59961 5.08668 6.2859 2.40039 9.59961 2.40039C12.9133 2.40039 15.5996 5.08668 15.5996 8.40039V13.2004C15.5996 15.1886 13.9878 16.8004 11.9996 16.8004C10.0114 16.8004 8.39961 15.1886 8.39961 13.2004V8.40039C8.39961 7.73765 8.93687 7.20039 9.59961 7.20039C10.2624 7.20039 10.7996 7.73765 10.7996 8.40039V13.2004C10.7996 13.8631 11.3369 14.4004 11.9996 14.4004C12.6624 14.4004 13.1996 13.8631 13.1996 13.2004V8.40039C13.1996 6.41217 11.5878 4.80039 9.59961 4.80039Z" fill="#8892A7"/>
</svg>
