<svg width="24" height="24" viewBox="0 0 24 24" fill="none" xmlns="http://www.w3.org/2000/svg">
<path fill-rule="evenodd" clip-rule="evenodd" d="M5.15128 5.15225C5.61991 4.68362 6.3797 4.68362 6.84833 5.15225L11.9998 10.3037L17.1513 5.15225C17.6199 4.68362 18.3797 4.68362 18.8483 5.15225C19.317 5.62088 19.317 6.38068 18.8483 6.84931L13.6969 12.0008L18.8483 17.1523C19.317 17.6209 19.317 18.3807 18.8483 18.8493C18.3797 19.3179 17.6199 19.3179 17.1513 18.8493L11.9998 13.6978L6.84833 18.8493C6.3797 19.3179 5.61991 19.3179 5.15128 18.8493C4.68265 18.3807 4.68265 17.6209 5.15128 17.1523L10.3027 12.0008L5.15128 6.84931C4.68265 6.38068 4.68265 5.62088 5.15128 5.15225Z" fill="#8892A7"/>
</svg>
