<svg width="24" height="24" viewBox="0 0 24 24" fill="none" xmlns="http://www.w3.org/2000/svg">
<path fill-rule="evenodd" clip-rule="evenodd" d="M13.5604 1.25482C14.0599 1.41228 14.3996 1.87554 14.3996 2.39931V8.3993L19.1996 8.39931C19.6471 8.39931 20.0574 8.64825 20.264 9.04513C20.4706 9.44201 20.4393 9.9209 20.1827 10.2875L11.7827 22.2875C11.4823 22.7165 10.9384 22.9013 10.4388 22.7438C9.93931 22.5863 9.59961 22.1231 9.59961 21.5993L9.59961 15.5993H4.79961C4.35216 15.5993 3.94188 15.3504 3.73524 14.9535C3.5286 14.5566 3.55994 14.0777 3.81653 13.7112L12.2165 1.71115C12.5169 1.28207 13.0608 1.09736 13.5604 1.25482Z" fill="#3366FF"/>
</svg>
