<svg width="24" height="24" viewBox="0 0 24 24" fill="none" xmlns="http://www.w3.org/2000/svg">
<path d="M3.60039 3.59961C2.93765 3.59961 2.40039 4.13687 2.40039 4.79961V19.1996C2.40039 19.8623 2.93765 20.3996 3.60039 20.3996C4.26313 20.3996 4.80039 19.8623 4.80039 19.1996V4.79961C4.80039 4.13687 4.26313 3.59961 3.60039 3.59961Z" fill="#8892A7"/>
<path d="M15.9519 14.7511C15.4832 15.2197 15.4832 15.9795 15.9519 16.4481C16.4205 16.9168 17.1803 16.9168 17.6489 16.4481L21.2489 12.8481C21.474 12.6231 21.6004 12.3179 21.6004 11.9996C21.6004 11.6813 21.474 11.3761 21.2489 11.1511L17.6489 7.55108C17.1803 7.08245 16.4205 7.08245 15.9519 7.55108C15.4832 8.01971 15.4832 8.77951 15.9519 9.24814L17.5033 10.7996L8.40039 10.7996C7.73765 10.7996 7.20039 11.3369 7.20039 11.9996C7.20039 12.6624 7.73765 13.1996 8.40039 13.1996H17.5033L15.9519 14.7511Z" fill="#8892A7"/>
</svg>
