<svg width="26" height="26" viewBox="0 0 26 26" fill="none" xmlns="http://www.w3.org/2000/svg">
<path fill-rule="evenodd" clip-rule="evenodd" d="M13.0004 3.90039C13.7184 3.90039 14.3004 4.48242 14.3004 5.20039V11.7004H20.8004C21.5184 11.7004 22.1004 12.2824 22.1004 13.0004C22.1004 13.7184 21.5184 14.3004 20.8004 14.3004H14.3004V20.8004C14.3004 21.5184 13.7184 22.1004 13.0004 22.1004C12.2824 22.1004 11.7004 21.5184 11.7004 20.8004V14.3004H5.20039C4.48242 14.3004 3.90039 13.7184 3.90039 13.0004C3.90039 12.2824 4.48242 11.7004 5.20039 11.7004L11.7004 11.7004V5.20039C11.7004 4.48242 12.2824 3.90039 13.0004 3.90039Z" fill="#3366FF"/>
</svg>
