<svg width="24" height="24" viewBox="0 0 24 24" fill="none" xmlns="http://www.w3.org/2000/svg">
<path fill-rule="evenodd" clip-rule="evenodd" d="M14.7511 20.0489C14.2825 19.5803 14.2825 18.8205 14.7511 18.3519L17.5026 15.6004H10.7996C6.16042 15.6004 2.39961 11.8396 2.39961 7.20039V4.80039C2.39961 4.13765 2.93687 3.60039 3.59961 3.60039C4.26235 3.60039 4.79961 4.13765 4.79961 4.80039V7.20039C4.79961 10.5141 7.4859 13.2004 10.7996 13.2004H17.5026L14.7511 10.4489C14.2825 9.98029 14.2825 9.22049 14.7511 8.75186C15.2197 8.28323 15.9795 8.28323 16.4481 8.75186L21.2481 13.5519C21.7168 14.0205 21.7168 14.7803 21.2481 15.2489L16.4481 20.0489C15.9795 20.5175 15.2197 20.5175 14.7511 20.0489Z" fill="#8892A7"/>
</svg>
