<svg width="26" height="26" viewBox="0 0 26 26" fill="none" xmlns="http://www.w3.org/2000/svg">
<path fill-rule="evenodd" clip-rule="evenodd" d="M11.7004 2.59961C11.208 2.59961 10.7578 2.87781 10.5376 3.31823L9.59695 5.19961H5.20039C4.48242 5.19961 3.90039 5.78164 3.90039 6.49961C3.90039 7.21758 4.48242 7.79961 5.20039 7.79961L5.20039 20.7996C5.20039 22.2355 6.36445 23.3996 7.80039 23.3996H18.2004C19.6363 23.3996 20.8004 22.2355 20.8004 20.7996V7.79961C21.5184 7.79961 22.1004 7.21758 22.1004 6.49961C22.1004 5.78164 21.5184 5.19961 20.8004 5.19961H16.4038L15.4631 3.31823C15.2429 2.87781 14.7928 2.59961 14.3004 2.59961H11.7004ZM9.10039 10.3996C9.10039 9.68164 9.68242 9.09961 10.4004 9.09961C11.1184 9.09961 11.7004 9.68164 11.7004 10.3996V18.1996C11.7004 18.9176 11.1184 19.4996 10.4004 19.4996C9.68242 19.4996 9.10039 18.9176 9.10039 18.1996V10.3996ZM15.6004 9.09961C14.8824 9.09961 14.3004 9.68164 14.3004 10.3996V18.1996C14.3004 18.9176 14.8824 19.4996 15.6004 19.4996C16.3184 19.4996 16.9004 18.9176 16.9004 18.1996V10.3996C16.9004 9.68164 16.3184 9.09961 15.6004 9.09961Z" fill="#3366FF"/>
</svg>
