<svg width="24" height="24" viewBox="0 0 24 24" fill="none" xmlns="http://www.w3.org/2000/svg">
<path fill-rule="evenodd" clip-rule="evenodd" d="M14.4004 8.4C13.7376 8.4 13.2004 7.86274 13.2004 7.2C13.2004 6.53726 13.7376 6 14.4004 6H20.4004C21.0631 6 21.6004 6.53726 21.6004 7.2V13.2C21.6004 13.8627 21.0631 14.4 20.4004 14.4C19.7376 14.4 19.2004 13.8627 19.2004 13.2V10.0971L14.0489 15.2485C13.5803 15.7172 12.8205 15.7172 12.3519 15.2485L9.60039 12.4971L4.44892 17.6485C3.98029 18.1172 3.22049 18.1172 2.75186 17.6485C2.28323 17.1799 2.28323 16.4201 2.75186 15.9515L8.75186 9.95147C9.22049 9.48284 9.98029 9.48284 10.4489 9.95147L13.2004 12.7029L17.5033 8.4H14.4004Z" fill="#A1A6B4"/>
</svg>
